<svg id="Layer_1" height="512" viewBox="0 0 512 512" width="512" xmlns="http://www.w3.org/2000/svg" data-name="Layer 1"><path d="m256 276.9a98.4 98.4 0 1 0 -98.4-98.4 98.508 98.508 0 0 0 98.4 98.4zm19.493-129.4a6 6 0 1 1 7.238-9.571l47.394 35.837a6 6 0 0 1 0 9.571l-47.394 35.838a6 6 0 1 1 -7.238-9.571l41.065-31.052zm-33.515 83.889 16.178-106.893a6 6 0 0 1 11.865 1.8l-16.178 106.885a6 6 0 1 1 -11.865-1.8zm-62.478-52.841a6 6 0 0 1 2.381-4.786l47.394-35.837a6 6 0 0 1 7.237 9.571l-41.065 31.052 41.06 31.052a6 6 0 1 1 -7.237 9.571l-47.394-35.838a6 6 0 0 1 -2.376-4.785z"/><path d="m36 327h440v63h-440z"/><path d="m36 315h440v-274h-440zm220-246.9a110.4 110.4 0 1 1 -110.4 110.4 110.522 110.522 0 0 1 110.4-110.4z"/><path d="m369.533 472a6 6 0 0 0 0-12h-41.657l-16.425-58h-110.9l-16.425 58h-41.659a6 6 0 1 0 0 12z"/></svg>