<svg id="Capa_1" enable-background="new 0 0 512 512" height="512" viewBox="0 0 512 512" width="512" xmlns="http://www.w3.org/2000/svg"><g><circle cx="350.313" cy="107" r="15"/><circle cx="230.313" cy="107" r="15"/><circle cx="110.313" cy="107" r="15"/><path d="m305.313 258.304v-16.304h-300v60h270.932z"/><path d="m211.07 332h-64.08c-10.393 17.858-29.526 30-51.678 30h-90v60h90c55.852 0 102.375-38.333 115.758-90z"/><path d="m425.313 242v30.82l30 19.997v-50.817z"/><path d="m305.313 152h45c-24.814 0-45-20.186-45-45s20.186-45 45-45 45 20.186 45 45-20.186 45-45 45h75v60h30v-212h-450v212h300zm-195 0c-24.814 0-45-20.186-45-45s20.186-45 45-45 45 20.186 45 45-20.186 45-45 45zm120 0c-24.814 0-45-20.186-45-45s20.186-45 45-45 45 20.186 45 45-20.186 45-45 45z"/><path d="m258.95 382.171c-9.917 14.839-9.917 34.79-.029 49.629l53.35 80.2h137.3l52.515-104.707c9.932-20.303 3.325-45.015-15.352-57.48l-91.421-60.938v-106.875h-60v240h-30v-109.526z"/></g></svg>